# xmcd
# 
# Track frame offsets:
#     150
#     14380
#     29744
#     45058
#     62326
#     75405
#     94784
# 
# Disc length: 1505
# 
# Revision: 0
# Processed by: cddbd v1.5.2PL0 Copyright (c) Steve Scherf et al.
# Submitted via: fre:ac v1.0.17
# 
DISCID=4305df07
DTITLE=One More Girl - The Hard Way
DYEAR=15
DGENRE=Country
TTITLE0=Tangled
TTITLE1=Wired
TTITLE2=Love Like Mine
TTITLE3=Easy To Remember
TTITLE4=Drunk Heart
TTITLE5=You're Not The One
TTITLE6=The Hard Way
EXTD=
EXTT0=
EXTT1=
EXTT2=
EXTT3=
EXTT4=
EXTT5=
EXTT6=
PLAYORDER=
